<svg version="1.1" id="Layer_1" xmlns="http://www.w3.org/2000/svg" xmlns:xlink="http://www.w3.org/1999/xlink" x="0px" y="0px"
	 width="100%" viewBox="0 0 496 496" enable-background="new 0 0 496 496" xml:space="preserve">
<path fill="#000000" opacity="1.000000" stroke="none" 
	d="
M113.022484,269.050385 
	C112.305374,265.803986 111.462975,262.579102 110.901070,259.306061 
	C110.097061,254.622742 109.853096,250.422760 103.661537,248.564484 
	C98.256462,246.942245 96.580849,241.010254 95.779350,235.574234 
	C95.519043,233.808792 95.483795,231.680389 97.727264,230.959244 
	C99.803062,230.291992 101.216698,231.755859 102.398293,233.155457 
	C105.250870,236.534363 106.071671,240.937195 108.696251,246.077911 
	C108.317513,239.667984 108.047050,234.579788 107.702705,229.496582 
	C107.550171,227.245041 105.428543,226.829376 103.987762,225.815796 
	C98.920227,222.250748 96.388412,216.240341 97.565140,210.605515 
	C97.883835,209.079422 98.254868,207.536865 99.977959,207.184875 
	C101.696732,206.833755 102.761963,208.082932 103.566429,209.374344 
	C105.988914,213.263107 106.598473,217.753708 108.202339,222.179520 
	C108.671257,217.283066 109.190155,212.390625 109.584923,207.488190 
	C109.746613,205.480301 107.877762,204.778900 106.693123,203.697861 
	C102.825409,200.168365 101.326614,195.738815 101.894356,190.650055 
	C102.127960,188.556198 102.448944,185.868561 105.063972,185.570343 
	C107.753571,185.263611 108.462852,187.894867 109.119026,189.890991 
	C110.377197,193.718430 110.454041,197.722549 110.232841,202.941498 
	C111.840851,197.009598 113.180573,192.264587 114.396210,187.487991 
	C114.897797,185.517120 113.140671,184.565094 112.123901,183.317169 
	C108.672089,179.080643 107.910400,174.401306 109.771889,169.281601 
	C110.351891,167.686417 111.004341,165.953049 113.040565,166.053238 
	C115.106850,166.154877 115.725037,168.109344 115.944229,169.640457 
	C116.387283,172.735428 116.370514,175.896225 116.598328,180.026093 
	C118.284721,176.119568 119.531136,172.983612 120.986725,169.947968 
	C121.955002,167.928604 121.130318,166.459564 120.033989,164.908005 
	C117.297485,161.035248 117.130035,156.877533 118.799965,152.559738 
	C119.522141,150.692490 120.215508,148.351135 122.661201,148.667465 
	C125.116585,148.985031 125.047050,151.381287 125.373314,153.395279 
	C125.832138,156.227600 124.154251,158.981461 125.615387,161.890198 
	C125.988792,161.993164 126.299538,162.253387 126.299538,162.253387 
	C129.560150,162.362839 130.303955,158.510941 133.179031,157.914978 
	C135.113205,157.514053 137.213943,156.303207 138.628143,158.455414 
	C139.869003,160.343811 138.289139,161.918457 137.171066,163.323898 
	C135.233765,165.759155 132.532440,167.909897 129.655121,167.840500 
	C124.160370,167.707993 122.620239,171.174850 121.133598,175.190659 
	C120.636719,176.532867 120.012108,177.827789 119.716469,179.341141 
	C121.467468,176.715225 123.851128,174.995071 126.609688,173.771561 
	C127.833252,173.228867 129.149750,172.724777 130.344040,173.841675 
	C131.672409,175.083969 131.436401,176.599152 130.715439,177.974808 
	C129.133850,180.992615 127.057640,184.182602 123.707985,184.695953 
	C116.120453,185.858780 115.063225,191.158142 114.702393,195.746658 
	C115.785034,194.954315 117.728142,193.471161 119.736389,192.082199 
	C121.282692,191.012756 123.083374,190.015274 124.775620,191.425323 
	C126.451080,192.821396 125.895897,194.831070 125.118034,196.523499 
	C123.472481,200.103821 121.118073,203.413040 117.301895,204.532745 
	C112.401085,205.970734 111.603912,209.450836 111.331802,213.623581 
	C111.149147,216.424606 110.846268,219.217804 110.528755,222.782730 
	C112.031502,218.720123 113.149071,215.195908 115.663399,212.495605 
	C117.107765,210.944366 118.860512,209.010803 121.215996,210.402695 
	C123.320869,211.646439 122.664391,214.024460 122.097107,215.885696 
	C120.739822,220.338867 118.253426,224.136169 113.908661,226.111588 
	C110.996056,227.435852 110.006744,229.328735 110.334412,232.358795 
	C110.811485,236.770325 111.119003,241.200180 111.505814,245.703781 
	C112.287498,241.061188 112.834869,236.388214 115.851677,232.575180 
	C117.015228,231.104492 118.461998,229.712616 120.509888,230.502792 
	C122.382523,231.225372 122.368576,233.118149 122.295265,234.800995 
	C122.057861,240.250259 120.126114,244.924911 115.472748,248.032562 
	C112.696869,249.886368 111.930725,252.072037 112.805069,255.265244 
	C114.030113,259.739288 114.937820,264.300262 116.245750,268.821136 
	C115.843224,264.250671 115.978119,259.770752 118.055481,255.620544 
	C119.012627,253.708313 120.077850,251.417740 122.750412,251.861832 
	C125.878082,252.381577 125.673569,255.330597 125.724129,257.471832 
	C125.846352,262.647766 124.343292,267.473419 120.281090,270.906219 
	C117.888405,272.928192 117.763359,274.831299 118.892288,277.418945 
	C120.606125,281.347290 122.149025,285.350189 124.159386,289.248077 
	C124.100243,285.477753 123.258514,281.772095 124.639381,278.143311 
	C125.532455,275.796387 126.219177,272.820129 129.276550,273.081787 
	C132.293747,273.339996 132.732681,276.447662 133.100098,278.851776 
	C133.876175,283.929993 133.469788,288.964813 129.975647,293.041138 
	C127.681908,295.717072 127.999268,297.947632 129.790512,300.599976 
	C132.478058,304.579498 134.981918,308.683075 137.910767,312.601654 
	C136.539444,308.316528 135.223328,304.102112 135.691513,299.572144 
	C135.944443,297.124878 136.555038,294.701691 139.175476,294.071625 
	C142.196243,293.345306 143.129944,296.039032 144.037445,298.107391 
	C146.495712,303.710144 146.919052,309.454773 143.769485,314.901062 
	C142.097626,317.792084 142.658249,319.831360 144.868042,321.922913 
	C148.240662,325.115112 151.550781,328.373322 155.469040,332.166534 
	C153.523224,328.195709 151.766846,324.856720 151.175095,321.148346 
	C150.715775,318.269989 150.677887,315.068542 153.711090,313.737305 
	C156.932632,312.323425 158.515686,315.343018 159.869019,317.508087 
	C163.076965,322.640198 164.567566,328.265442 162.563217,334.191162 
	C161.451157,337.478882 162.291641,339.499817 165.054138,341.299530 
	C169.497070,344.194000 173.817139,347.277069 178.415543,350.105133 
	C175.638184,346.656555 172.768814,343.291077 171.418564,339.009125 
	C170.496185,336.084045 169.556458,332.746155 172.684662,330.864258 
	C175.949966,328.899811 178.363266,331.516937 180.197968,333.906250 
	C184.246811,339.178955 187.215485,344.886414 185.642014,351.885529 
	C185.186661,353.911072 186.145126,354.969238 187.770889,355.865875 
	C193.589294,359.074829 199.590164,361.830536 207.137619,364.116150 
	C202.310501,360.387573 198.271606,357.511414 195.913971,353.094238 
	C194.508392,350.460754 192.765579,347.298462 195.405807,344.792267 
	C198.181870,342.157166 200.998352,344.467865 203.447052,346.173340 
	C209.225418,350.197937 212.901138,355.647430 213.237915,362.759003 
	C213.396194,366.101044 215.155960,367.055176 217.784592,367.561432 
	C225.112579,368.972748 232.447693,370.347137 239.909073,371.342712 
	C236.599548,369.808777 233.271240,368.313812 229.985489,366.730499 
	C226.260544,364.935547 223.433701,362.189392 221.677200,358.420868 
	C220.880676,356.711884 220.317566,354.914612 221.813507,353.286316 
	C223.188812,351.789307 224.997482,351.378754 226.854904,352.061646 
	C234.421280,354.843384 241.312210,358.653290 243.856277,366.951080 
	C245.089630,370.973816 247.284409,372.264343 251.142975,371.834595 
	C252.624420,371.669586 254.156235,371.663513 255.636337,371.834351 
	C260.163879,372.356812 262.950317,371.037018 264.450439,366.174896 
	C266.895264,358.250763 273.804932,354.858093 280.928619,352.075775 
	C282.751892,351.363678 284.567017,351.705475 285.970734,353.231445 
	C287.442841,354.831787 287.098724,356.574188 286.308533,358.349579 
	C284.451752,362.521118 281.300476,365.340942 277.167969,367.134644 
	C275.051392,368.053284 272.919922,368.937469 270.914612,370.317078 
	C278.328674,370.347687 285.433380,368.646393 292.488342,366.726654 
	C294.766998,366.106598 294.494934,363.999207 294.692932,362.180450 
	C295.533051,354.462921 299.791962,348.955261 306.182190,344.963226 
	C308.024048,343.812592 310.262360,342.874603 312.265747,344.439941 
	C314.487183,346.175659 313.930786,348.682434 313.093994,350.889740 
	C310.782257,356.987732 305.810638,360.610474 300.546387,363.994507 
	C307.454773,362.226166 313.786255,359.163879 320.052032,355.917328 
	C321.992584,354.911835 322.477570,353.620880 322.116852,351.459930 
	C320.885284,344.081329 324.159210,338.154480 328.776978,332.862793 
	C330.393860,331.009888 332.544006,329.093689 335.275848,330.757843 
	C337.844788,332.322723 337.551056,335.052582 336.972748,337.526794 
	C335.835663,342.391785 332.753998,346.121918 329.554962,349.863373 
	C335.043365,347.088257 340.000610,343.547424 344.740662,339.660126 
	C346.797577,337.973267 345.841614,336.042786 345.338776,334.166565 
	C343.517426,327.371033 345.238495,321.328857 349.233154,315.797119 
	C350.323303,314.287476 351.729462,312.963226 353.841003,313.486633 
	C356.039337,314.031494 356.268677,315.984253 356.602173,317.803528 
	C357.543976,322.941589 354.847656,327.098083 352.495361,332.246582 
	C357.434418,328.426971 360.960175,324.394623 364.409790,320.255798 
	C366.119843,318.204102 364.996796,316.564636 364.075012,314.798187 
	C361.062927,309.025970 361.507294,303.245575 364.153137,297.519836 
	C364.988953,295.711090 365.986084,293.638641 368.419617,293.938660 
	C371.026398,294.260010 371.716187,296.615234 372.105225,298.730469 
	C372.978241,303.477264 371.652649,307.944672 369.187347,313.644012 
	C373.687775,308.475403 376.284821,303.830933 378.975708,299.234039 
	C380.486420,296.653290 379.162384,294.812866 377.765350,292.890259 
	C374.143768,287.906250 373.970917,282.376434 375.339752,276.671387 
	C375.773743,274.862549 376.668243,273.056549 378.886475,273.026398 
	C380.794495,273.000427 381.763245,274.589355 382.520813,276.069397 
	C384.671082,280.270264 384.536041,284.701080 384.124939,289.399414 
	C385.939423,284.836853 387.713409,280.257568 389.585480,275.718781 
	C390.526886,273.436371 388.923157,272.367371 387.637146,271.098816 
	C383.311859,266.832397 381.616669,261.621368 382.302399,255.659073 
	C382.487427,254.050278 382.859711,252.200195 384.855774,251.745422 
	C387.040588,251.247650 388.192017,252.775360 389.247742,254.344055 
	C391.580200,257.809998 391.450653,261.929596 392.363922,266.183472 
	C392.975067,263.839752 393.446411,261.830109 394.025055,259.851837 
	C395.571136,254.565887 396.376221,249.906769 390.424164,246.145462 
	C386.690613,243.786102 385.743896,239.039581 385.692657,234.535522 
	C385.675568,233.033051 385.612640,231.380692 387.355988,230.709030 
	C389.160095,230.013977 390.567291,230.901642 391.771393,232.204712 
	C395.000702,235.699478 395.413910,240.266479 396.475037,244.799789 
	C396.782227,240.518158 396.884552,236.429749 397.428894,232.401047 
	C397.819427,229.510834 397.112122,227.702408 394.399872,226.385208 
	C389.604340,224.056244 386.814392,220.015778 385.647705,214.866013 
	C385.275360,213.222366 385.053955,211.398666 386.771301,210.349945 
	C388.527679,209.277390 389.975250,210.510635 391.263580,211.527328 
	C393.686676,213.439529 394.707275,216.348160 396.532471,219.572861 
	C396.532471,216.546692 396.715179,214.162735 396.488312,211.818436 
	C396.172668,208.556839 395.123962,206.026398 391.296478,204.908905 
	C387.141357,203.695755 384.387756,200.371704 382.805542,196.293594 
	C382.148102,194.599045 381.338531,192.635498 383.292908,191.302307 
	C385.093018,190.074341 386.823547,191.121902 388.353455,192.184372 
	C390.969299,194.000961 392.498260,196.751984 394.522858,199.217026 
	C394.003601,197.517151 393.226776,195.848801 393.014099,194.111389 
	C392.415833,189.223755 390.505157,185.980087 385.072815,185.090729 
	C381.711945,184.540512 379.452545,181.691162 377.605499,178.817368 
	C376.641907,177.318130 376.138306,175.617569 377.218384,174.135880 
	C378.475250,172.411697 380.254639,173.308746 381.780609,173.926163 
	C384.480011,175.018311 386.434387,177.008377 388.478699,179.251297 
	C387.486237,176.761429 386.469513,174.280884 385.508606,171.778900 
	C384.649445,169.541779 383.259766,168.345139 380.671875,168.266449 
	C376.657623,168.144394 373.279877,166.345993 370.710297,163.255127 
	C369.567474,161.880417 368.026367,160.218552 369.324219,158.378098 
	C370.753906,156.350769 373.005249,157.148727 374.799805,157.963181 
	C376.429291,158.702744 377.835754,159.933746 379.290497,160.914383 
	C378.076324,154.715698 376.008270,152.748474 370.082031,152.323746 
	C366.582428,152.072906 363.683167,150.578140 361.282349,148.110489 
	C360.221863,147.020447 359.287445,145.685120 360.238617,144.100586 
	C361.175568,142.539764 362.796722,142.569656 364.247345,143.086899 
	C366.229126,143.793579 368.115204,144.768494 370.489532,145.827957 
	C369.720734,144.432068 369.140442,143.378448 368.433289,142.094452 
	C371.190552,142.001007 371.318237,144.996048 373.506195,145.433441 
	C372.965729,142.438446 371.336304,139.759460 371.715424,136.691147 
	C371.909973,135.116364 372.259155,133.611191 374.020752,133.249527 
	C375.545715,132.936417 376.484833,134.044037 377.172241,135.227173 
	C379.439850,139.130142 380.927490,143.426422 378.567383,147.542679 
	C376.603149,150.968491 377.439392,153.303467 379.450592,156.073364 
	C381.098511,158.342865 382.317505,160.923798 384.105103,163.349869 
	C382.875061,159.690369 382.326355,155.959915 382.694458,152.144989 
	C382.865143,150.376083 383.349182,148.632492 385.313171,148.397949 
	C387.047516,148.190842 387.878082,149.786514 388.452820,151.173386 
	C390.150635,155.270386 391.559875,159.669113 388.640717,163.554642 
	C386.250763,166.735764 386.219879,169.320404 388.108154,172.589737 
	C389.421875,174.864319 390.127197,177.490265 391.356537,179.979538 
	C391.071167,176.695770 391.304565,173.437027 391.768494,170.208206 
	C392.032166,168.373032 392.642578,166.341675 394.741913,166.046188 
	C397.087494,165.716034 397.640076,167.883759 398.252045,169.585083 
	C399.958099,174.328018 399.610626,178.958359 396.136780,182.685928 
	C393.779755,185.215103 393.293549,187.530365 394.340454,190.718063 
	C395.522858,194.318283 396.229645,198.074677 397.367737,201.779083 
	C397.490204,197.437881 397.433258,193.076706 399.063507,188.981262 
	C399.741241,187.278824 400.502930,185.389786 402.828217,185.624054 
	C404.916016,185.834427 405.269653,187.697113 405.623688,189.307404 
	C406.772766,194.534210 405.932159,199.434814 401.799866,203.006149 
	C398.576965,205.791565 397.867493,208.792816 398.735443,212.741928 
	C399.358917,215.578629 399.407562,218.541687 399.794006,222.223633 
	C401.280518,217.767914 402.358734,214.018097 403.806030,210.416611 
	C404.529449,208.616379 405.800018,206.559616 408.248474,207.298264 
	C410.354980,207.933731 410.298950,210.072845 410.364410,211.930283 
	C410.557098,217.399139 409.291962,222.386765 404.335876,225.337891 
	C401.026581,227.308426 399.861145,229.751068 399.943329,233.472046 
	C400.027161,237.267288 399.473907,241.076630 399.114868,246.053940 
	C401.706207,241.329315 402.420532,236.981354 405.123779,233.647156 
	C406.389893,232.085556 407.788147,230.204498 410.045227,231.041885 
	C412.585785,231.984451 412.339386,234.438751 412.010223,236.610947 
	C410.749359,244.931473 405.693146,250.027130 398.730804,250.148560 
	C397.531769,256.183136 396.335785,262.202423 394.986877,268.955811 
	C394.499298,270.543610 394.164673,271.397400 393.830048,272.251160 
	C391.192810,279.346222 388.555573,286.441254 385.774292,293.923889 
	C389.501617,290.123993 391.992737,285.666748 396.136047,282.845734 
	C398.140472,281.480988 400.515320,279.519104 402.902283,281.536072 
	C405.375763,283.626160 403.693604,286.224731 402.479553,288.329254 
	C398.854767,294.612732 393.943024,298.950653 386.054688,298.300323 
	C384.755798,298.193237 383.438812,297.848938 382.541565,299.365143 
	C379.360657,304.740265 376.111633,310.075043 372.274048,316.444885 
	C377.197784,312.769226 380.623779,309.023804 385.367493,307.265472 
	C387.654541,306.417725 390.251160,304.956604 392.226044,307.506805 
	C394.093262,309.917938 392.048279,311.980072 390.670105,313.706573 
	C385.810211,319.794647 379.896088,323.711029 371.671143,321.300262 
	C369.312805,320.609009 368.063629,321.404114 366.599152,323.055573 
	C362.299286,327.904449 357.828247,332.601562 352.976807,337.842896 
	C351.591492,338.993042 350.653656,339.658386 349.715790,340.323730 
	C343.103210,346.160278 336.039612,351.388123 327.447327,356.383606 
	C335.087219,354.509033 341.239807,351.209442 348.232941,351.652771 
	C350.569794,351.800903 353.280121,351.595428 354.055450,354.384766 
	C354.802368,357.071686 352.572235,358.624176 350.697662,360.001984 
	C343.597382,365.220734 334.103943,365.359467 326.908417,360.327820 
	C325.368317,359.250854 324.142792,358.125671 322.032501,359.268158 
	C318.375458,361.247986 314.632324,363.094482 310.819458,364.753601 
	C307.203613,366.327026 303.451996,367.588440 298.847260,369.332916 
	C306.949615,369.072723 313.948822,366.899933 321.082031,368.676422 
	C323.715729,369.332336 326.745270,369.839264 326.952759,373.089386 
	C327.143707,376.080322 324.369873,377.142303 321.984955,377.921234 
	C312.679291,380.960571 303.872284,381.130798 297.038391,372.652893 
	C295.476074,370.714722 293.906097,370.689240 291.797211,371.249969 
	C283.935699,373.340179 276.044830,375.320190 267.782288,376.365051 
	C271.410767,376.798035 275.029022,377.390625 278.670319,377.624420 
	C283.442688,377.930847 287.785461,379.451172 291.890228,381.748444 
	C293.546234,382.675232 294.877228,384.067902 294.626312,386.146332 
	C294.394440,388.067627 292.713745,388.695282 291.149414,389.345947 
	C282.527771,392.932190 269.634979,389.105377 265.274139,380.940887 
	C263.153595,376.970734 260.623688,375.780975 256.587036,376.284485 
	C255.274292,376.448212 253.908127,376.448456 252.594315,376.290802 
	C247.907333,375.728455 244.790787,376.946289 242.272919,381.639587 
	C238.009888,389.585907 224.102127,393.065033 216.068085,389.039612 
	C212.291702,387.147400 212.027618,384.216766 215.751282,381.918152 
	C219.738449,379.456818 224.139450,377.964020 228.919067,377.642822 
	C232.627579,377.393555 236.313461,376.807800 240.027420,376.037811 
	C231.406540,375.192108 223.080292,373.111664 214.782806,370.944946 
	C212.617996,370.379669 211.760162,371.610596 210.707245,372.918579 
	C203.449951,381.933838 192.585510,380.833496 183.843765,376.970306 
	C182.300827,376.288422 180.923126,375.127625 180.910294,373.241913 
	C180.895309,371.040588 182.528915,370.084595 184.361099,369.508759 
	C188.187637,368.306183 192.026703,367.406494 196.125961,368.119171 
	C198.721405,368.570374 201.391510,368.592133 204.287125,368.029877 
	C197.927734,365.063446 191.558136,362.118561 185.214447,359.118958 
	C182.990082,358.067169 181.848160,359.852936 180.397934,360.811066 
	C173.485306,365.377808 161.665146,364.452850 155.834564,358.855133 
	C154.497650,357.571594 153.013046,356.229370 153.764175,354.146332 
	C154.495468,352.118317 156.444580,351.922943 158.294052,351.684357 
	C164.238968,350.917358 169.667770,353.403076 175.659698,353.951324 
	C170.603043,350.101990 165.529221,346.274872 160.499207,342.391052 
	C158.777527,341.061707 157.335190,342.132507 155.867081,342.777954 
	C147.729401,346.355560 140.917725,343.532013 134.729874,338.272186 
	C132.854706,336.678223 130.770508,334.483246 132.262146,331.825073 
	C133.586899,329.464294 136.210403,330.041687 138.596146,330.488159 
	C143.617798,331.427948 147.715820,334.440277 152.806137,335.913025 
	C148.594666,331.246887 144.367386,326.594879 140.181137,321.906219 
	C138.883560,320.452942 137.404114,321.184143 135.995972,321.446899 
	C127.925201,322.952728 119.387230,318.841888 116.045250,311.728851 
	C115.344963,310.238342 114.530769,308.610626 115.952240,307.083313 
	C117.155373,305.790619 118.648689,306.189636 120.153824,306.520111 
	C126.874191,307.995850 131.019531,313.378784 137.155350,317.662842 
	C132.565628,311.868042 129.379044,306.336792 126.298187,300.758331 
	C125.144417,298.669250 123.833473,298.197693 121.539497,298.256378 
	C113.610481,298.459290 106.983620,293.607697 104.446159,286.151947 
	C103.889160,284.515289 103.403328,282.837341 104.886658,281.513306 
	C106.350555,280.206573 107.980400,280.830017 109.560089,281.513275 
	C112.406067,282.744202 114.466484,284.888733 116.404655,287.205750 
	C118.205040,289.358002 120.049202,291.473663 122.111458,293.512207 
	C118.792572,285.662964 115.948921,277.654663 113.206841,269.275024 
	C112.999359,269.012878 113.022484,269.050385 113.022484,269.050385 
z"/>
<path fill="#000000" opacity="1.000000" stroke="none" 
	d="
M304.376953,158.420349 
	C304.941376,173.696289 300.766144,186.475128 288.214478,195.531891 
	C284.966064,197.875809 284.403656,201.364670 284.403503,204.858658 
	C284.402527,229.664017 285.249329,254.415802 287.912262,279.118988 
	C289.440460,293.295135 291.676727,307.532227 289.363861,321.892761 
	C288.204803,329.089478 285.244476,333.230530 280.866943,333.248810 
	C276.649139,333.266418 273.367432,329.746124 272.307617,322.522552 
	C270.926483,313.109009 271.129425,303.559357 272.234772,294.124756 
	C275.803925,263.660889 277.435516,233.116531 276.836182,202.447372 
	C276.774902,199.311661 275.700714,196.973572 273.123810,195.290131 
	C254.981903,183.438293 252.043365,152.128143 264.501892,133.975464 
	C273.181335,121.329109 287.172272,120.968544 296.508484,133.194519 
	C302.053314,140.455566 304.234375,148.936432 304.376953,158.420349 
z"/>
<path fill="#000000" opacity="1.000000" stroke="none" 
	d="
M204.376373,52.573341 
	C206.585449,50.339603 208.755341,50.114040 210.904053,51.777672 
	C212.916916,53.336128 213.058014,55.537121 212.021255,57.646690 
	C210.832474,60.065639 211.597366,62.199356 212.518127,64.356102 
	C215.799316,72.041801 223.675659,77.024483 231.936462,76.690338 
	C240.139557,76.358536 246.979233,71.069756 249.958054,63.080578 
	C250.800522,60.821064 250.379456,58.933437 249.711090,56.824181 
	C249.069199,54.798443 249.405609,52.822643 251.374435,51.519611 
	C253.066833,50.399513 254.820206,50.407829 256.528320,51.491596 
	C258.330017,52.634731 258.586792,54.402805 258.352203,56.326298 
	C256.773682,69.269798 268.684052,79.535370 281.415985,76.200783 
	C287.774170,74.535530 292.279633,70.655701 295.221985,64.816223 
	C296.580933,62.119251 296.796692,59.563046 295.538635,56.706005 
	C294.641663,54.669003 295.536865,52.724392 297.374908,51.488255 
	C299.030273,50.374931 300.853577,50.377857 302.516846,51.566639 
	C304.421387,52.927814 305.040802,55.149654 303.970734,56.894234 
	C298.606018,65.640625 298.124420,75.821869 295.315613,85.304794 
	C293.335785,91.989090 291.777740,98.804893 290.222778,105.605743 
	C289.431763,109.065430 287.783447,110.450188 284.033569,110.416489 
	C264.203674,110.238289 244.370468,110.240417 224.540558,110.418404 
	C220.687286,110.452980 218.898941,109.241646 217.994858,105.458450 
	C215.057373,93.166519 211.776489,80.957062 208.706329,68.696182 
	C207.656570,64.503845 206.612305,60.379086 203.980743,56.785305 
	C203.244583,55.779991 203.603653,54.192848 204.376373,52.573341 
z"/>
<path fill="#000000" opacity="1.000000" stroke="none" 
	d="
M216.339508,139.041626 
	C216.964035,149.271240 217.587173,159.049744 218.210297,168.828247 
	C218.500320,168.849350 218.790329,168.870438 219.080338,168.891541 
	C219.676422,156.360367 220.272507,143.829193 220.868591,131.298019 
	C221.397263,131.264084 221.925919,131.230148 222.454590,131.196213 
	C223.861115,143.735931 224.289841,156.372421 225.165146,169.033600 
	C225.713013,156.124680 226.185272,143.244659 226.991623,129.114166 
	C230.071060,132.876816 229.271423,136.482925 229.651627,139.595566 
	C231.241821,152.614182 233.252914,165.590897 233.405701,178.765915 
	C233.467575,184.101135 232.060181,188.679703 228.400513,192.408752 
	C223.632584,197.267059 222.209412,202.969162 222.214386,209.670685 
	C222.235153,237.643967 223.876602,265.485199 226.974106,293.294373 
	C228.142838,303.787201 228.942764,314.534088 226.366745,325.074829 
	C225.371994,329.145172 223.813889,333.023743 218.900482,333.165253 
	C213.866455,333.310272 211.681091,329.698090 210.516022,325.378601 
	C208.450012,317.718842 208.276306,309.878082 209.095901,302.087158 
	C212.368393,270.979004 214.804688,239.833115 214.719330,208.521881 
	C214.704575,203.104874 213.502136,198.450180 209.723984,194.379761 
	C203.902969,188.108490 202.616455,180.604599 203.279083,172.156250 
	C204.344879,158.567352 205.921295,145.052704 207.618210,131.541473 
	C207.719315,130.736389 207.615234,129.855530 208.954666,129.017136 
	C211.964600,141.944489 208.962555,155.040924 211.983566,167.803909 
	C212.720688,155.980453 213.457794,144.156982 214.194901,132.333527 
	C216.853394,134.154816 216.111298,136.479630 216.339508,139.041626 
z"/>
<path fill="#000000" opacity="1.000000" stroke="none" 
	d="
M181.155594,389.704681 
	C187.284668,395.252838 187.157928,398.161377 180.780228,405.854980 
	C184.014786,413.717407 182.949905,416.618286 175.576370,420.031250 
	C168.147690,423.469727 159.205246,421.740936 156.271866,416.323151 
	C155.479218,414.859161 155.864410,413.459961 156.226440,411.984009 
	C157.982834,404.823364 160.777817,398.081421 164.454727,391.715546 
	C168.388870,384.904236 169.057739,384.692902 176.327744,387.409912 
	C177.875168,387.988220 179.335541,388.799500 181.155594,389.704681 
M168.887985,404.934967 
	C162.319611,402.185211 163.300400,408.832825 161.393097,411.374817 
	C159.043854,414.505798 162.683029,415.195160 164.627838,415.780884 
	C168.517822,416.952423 172.883026,420.041107 176.311813,415.400574 
	C178.657516,412.225922 176.100021,408.714233 168.887985,404.934967 
M178.569763,402.174561 
	C181.659180,400.802704 181.046906,398.575439 179.698395,396.443848 
	C177.517990,392.997375 174.433472,390.707062 170.449921,389.698639 
	C165.649841,400.420593 166.898926,402.492310 178.569763,402.174561 
z"/>
<path fill="#000000" opacity="1.000000" stroke="none" 
	d="
M125.208084,390.158447 
	C125.726288,387.324799 125.925644,384.867523 127.021523,382.546234 
	C131.492722,373.075409 141.048889,369.323303 150.203705,373.561279 
	C159.016510,377.640930 162.543167,387.413757 158.544708,396.675446 
	C155.264664,404.273102 148.027451,408.983185 141.011230,408.086578 
	C131.729462,406.900452 126.550949,401.178741 125.208084,390.158447 
M152.762299,383.900818 
	C152.042313,382.406769 151.502106,380.788727 150.571655,379.439880 
	C146.219421,373.130524 141.514725,372.806610 136.268799,378.342499 
	C129.630447,385.347717 130.618622,397.915100 138.156754,403.770782 
	C140.415054,405.525055 142.427307,405.777374 144.988770,404.387543 
	C151.568924,400.817169 154.762009,393.192566 152.762299,383.900818 
z"/>
<path fill="#000000" opacity="1.000000" stroke="none" 
	d="
M380.588013,396.191162 
	C375.525482,404.353149 368.596527,407.727173 361.288208,405.850952 
	C353.125732,403.755432 347.065887,396.790375 346.576874,388.942047 
	C346.094391,381.198517 350.337799,374.581177 357.594177,371.761383 
	C364.202850,369.193268 372.520844,371.273193 377.066986,376.874634 
	C381.624390,382.489899 383.865936,388.675568 380.588013,396.191162 
M350.155426,383.727600 
	C350.918610,395.806549 363.110107,403.317810 374.261780,398.653870 
	C377.285248,397.389374 378.663147,395.342102 378.356232,392.085510 
	C377.529449,383.314087 368.942596,375.691895 360.127655,376.497131 
	C355.985687,376.875488 351.256165,377.324310 350.155426,383.727600 
z"/>
<path fill="#000000" opacity="1.000000" stroke="none" 
	d="
M88.986977,347.180328 
	C86.287262,354.326599 86.266548,360.738586 91.754875,366.672882 
	C94.240524,364.975494 96.505341,363.428925 99.015343,361.714905 
	C97.312195,358.609894 94.262680,356.088593 94.482796,352.109619 
	C100.448517,352.503082 104.237366,356.325409 106.138985,364.000122 
	C100.506882,365.185669 97.786873,371.685760 91.161743,371.948242 
	C90.765038,369.613586 88.972878,368.317902 87.119331,366.894531 
	C81.421562,362.519104 79.422539,356.001129 81.361633,349.114899 
	C83.586037,341.215424 89.453285,335.627991 97.042175,335.014618 
	C104.264969,334.430786 109.985809,337.596252 113.836395,343.717743 
	C117.242805,349.133057 115.504570,354.062469 109.604393,355.795563 
	C109.604393,353.128296 109.892990,350.487244 109.536873,347.936188 
	C109.000305,344.092499 107.900047,340.035858 103.896988,338.585907 
	C99.639618,337.043854 95.686882,338.625275 92.681358,342.034332 
	C91.374046,343.517181 90.332954,345.234772 88.986977,347.180328 
z"/>
<path fill="#000000" opacity="1.000000" stroke="none" 
	d="
M382.598206,378.386536 
	C378.885040,374.513275 375.945892,370.500153 373.238647,366.289673 
	C371.643280,363.808502 371.687958,361.679352 373.858582,359.624512 
	C375.546356,358.026794 377.054993,356.205505 378.886597,354.800873 
	C383.370148,351.362579 387.430664,351.147552 390.707062,353.909882 
	C394.206635,356.860443 395.486298,362.863617 393.462311,367.166290 
	C392.845673,368.477142 392.029572,369.694153 391.228943,371.085999 
	C397.831604,371.486176 404.346283,370.838409 411.405090,374.330475 
	C403.894043,378.078705 396.975037,377.406555 389.681244,376.531830 
	C390.813080,380.716614 394.468048,383.318756 394.874969,388.142670 
	C389.687866,385.693634 386.336029,382.078827 382.598206,378.386536 
M377.881531,364.845001 
	C379.078918,365.998962 380.269409,367.160217 381.475281,368.305237 
	C383.312286,370.049469 385.055145,369.802643 386.612976,367.946930 
	C388.718628,365.438721 392.165192,362.428894 390.277557,359.485413 
	C388.363922,356.501495 384.097015,358.007568 381.112488,359.442596 
	C379.276825,360.325256 375.578033,360.488159 377.881531,364.845001 
z"/>
<path fill="#000000" opacity="1.000000" stroke="none" 
	d="
M417.704346,358.710999 
	C418.580658,357.675629 419.299713,356.954559 419.802216,356.105316 
	C421.282135,353.604370 422.831085,350.756012 420.113983,348.416504 
	C417.021515,345.753723 415.070007,349.017914 412.951508,350.626801 
	C412.032166,351.324982 411.293213,352.258636 410.460358,353.073059 
	C405.285950,358.133484 401.038452,358.820557 396.973938,355.260284 
	C391.997742,350.901489 391.078705,343.523254 394.905457,338.654480 
	C399.088898,333.331879 404.514923,332.524780 410.292877,336.593506 
	C407.320892,338.582947 403.580048,338.608063 400.904755,340.978546 
	C397.077911,344.369263 395.064423,349.129669 397.338776,350.655212 
	C401.429321,353.399048 404.075897,350.292633 406.687958,347.686066 
	C408.218353,346.158875 409.640503,344.512573 411.256409,343.083923 
	C414.480438,340.233429 417.758667,340.184509 421.085022,343.066956 
	C425.608948,346.987030 426.651794,356.110565 423.108246,361.480988 
	C419.391785,367.113464 413.293671,368.947510 407.507507,366.165955 
	C406.761078,365.807098 406.046509,365.398834 405.920868,364.162598 
	C409.948395,362.964661 414.287903,362.203735 417.704346,358.710999 
z"/>
<path fill="#000000" opacity="1.000000" stroke="none" 
	d="
M194.458359,403.492523 
	C196.876862,400.817902 199.081192,398.429688 202.230286,395.017853 
	C205.855347,408.929352 206.902145,421.482452 204.710480,435.053406 
	C197.512878,431.028900 195.004211,424.279266 191.680557,417.868500 
	C187.348434,420.458435 185.784195,425.761475 180.103989,427.908386 
	C183.144073,418.239105 188.794281,411.065002 194.458359,403.492523 
M199.810562,422.297546 
	C200.174774,422.990295 200.538971,423.683044 201.448212,425.412537 
	C200.670029,418.360229 200.022018,412.487579 199.339859,406.305511 
	C193.421814,413.606354 193.423859,413.604797 198.704971,420.496674 
	C199.003738,420.886597 199.225128,421.335754 199.810562,422.297546 
z"/>
<path fill="#000000" opacity="1.000000" stroke="none" 
	d="
M328.982391,423.752167 
	C330.086121,427.667358 327.496277,426.545746 325.946960,426.279449 
	C320.088959,425.272705 315.111206,422.264740 310.172119,418.681305 
	C307.590851,422.998199 308.975800,428.374481 305.787262,432.425964 
	C302.500916,424.891724 303.117523,404.652740 307.204620,394.522095 
	C316.630585,402.917603 323.532745,412.547241 328.982391,423.752167 
M319.673187,417.376495 
	C316.589142,413.191864 313.505096,409.007202 310.421051,404.822571 
	C309.369781,407.592194 309.371582,410.027771 309.369171,412.463379 
	C309.367523,414.133606 309.978485,415.247925 311.768524,415.671417 
	C314.434448,416.302216 317.060059,417.103302 319.673187,417.376495 
z"/>
<path fill="#000000" opacity="1.000000" stroke="none" 
	d="
M250.145752,432.396240 
	C248.526703,424.275726 248.199478,416.545471 249.648666,408.759644 
	C249.998810,406.878510 250.221634,404.904938 252.263901,404.350098 
	C259.403381,402.410400 266.514191,402.165619 274.694489,405.467682 
	C267.421661,408.923218 260.879089,409.681854 254.360229,408.828949 
	C252.997482,410.937012 254.411850,412.471344 254.293533,414.074921 
	C253.976868,418.366486 256.216705,418.956238 259.930603,418.382019 
	C264.349640,417.698792 268.746552,418.307648 273.754730,420.350037 
	C267.793854,424.138123 261.950073,424.225128 255.962646,423.882324 
	C254.160538,428.788666 255.242676,434.205444 252.657349,438.931091 
	C250.711716,437.105255 250.913483,434.789825 250.145752,432.396240 
z"/>
<path fill="#000000" opacity="1.000000" stroke="none" 
	d="
M339.829102,404.363525 
	C339.809906,396.919586 339.055634,389.851898 341.148621,382.897736 
	C345.302368,394.873016 346.998993,407.018372 344.869110,420.984406 
	C333.758850,412.810425 325.060638,403.979950 318.935242,392.637970 
	C327.742676,396.182739 333.044220,404.017822 340.023682,409.942871 
	C341.129883,407.908478 339.888458,406.387970 339.829102,404.363525 
z"/>
<path fill="#000000" opacity="1.000000" stroke="none" 
	d="
M116.024902,391.646057 
	C110.729088,389.730316 106.678978,386.632416 103.306610,382.607941 
	C102.104683,381.173615 100.965698,379.642212 102.001305,377.656586 
	C107.000458,368.071350 113.982628,360.288635 123.262085,354.546204 
	C120.375191,364.137848 113.845123,371.149689 106.574898,378.086487 
	C109.658165,381.374939 113.473068,383.819092 115.948090,387.522766 
	C117.309090,389.559448 117.326080,389.548096 116.024902,391.646057 
z"/>
<path fill="#000000" opacity="1.000000" stroke="none" 
	d="
M214.461914,407.767395 
	C215.483444,405.312775 215.611206,402.863739 217.949905,400.749847 
	C221.225021,411.089874 217.459274,420.597992 216.052124,430.327942 
	C221.624664,432.056641 227.813904,431.393799 233.041519,436.333405 
	C225.787445,438.148834 219.593567,437.708496 213.550369,435.076080 
	C211.484131,434.176025 211.747070,432.116333 211.659332,430.296875 
	C211.295837,422.759003 212.129349,415.367340 214.461914,407.767395 
z"/>
<path fill="#000000" opacity="1.000000" stroke="none" 
	d="
M277.208740,419.360657 
	C276.423431,413.639465 276.526611,408.356171 277.461426,402.952393 
	C283.018585,411.372284 283.901123,421.055023 284.625488,431.116638 
	C290.601135,430.901031 296.458588,427.804016 302.668915,431.495697 
	C296.807037,435.772827 290.614044,436.748322 284.038208,436.204041 
	C282.017090,436.036682 281.423035,434.304138 280.864166,432.753021 
	C279.342834,428.530640 277.883423,424.283020 277.208740,419.360657 
z"/>
<path fill="#000000" opacity="1.000000" stroke="none" 
	d="
M349.852234,340.661682 
	C350.653656,339.658386 351.591492,338.993042 352.801208,338.115234 
	C358.531494,335.481018 363.358795,331.706848 369.342102,330.396973 
	C371.714844,329.877563 374.258728,329.397552 375.703949,331.709747 
	C377.225525,334.144104 375.344818,336.159882 373.754089,337.854950 
	C366.877167,345.183136 357.016632,346.452606 349.852234,340.661682 
z"/>
<path fill="#000000" opacity="1.000000" stroke="none" 
	d="
M125.832474,161.864197 
	C126.098892,160.489029 126.238663,159.027435 126.994362,158.034729 
	C129.936600,154.169724 131.672607,150.644043 128.853943,145.535995 
	C126.958488,142.100983 128.991241,138.090317 131.090637,134.768814 
	C131.717133,133.777618 132.619232,132.883469 133.941513,133.147247 
	C135.483948,133.454926 135.990097,134.754166 136.161880,136.116287 
	C136.663208,140.091354 134.864044,143.540558 133.423080,147.136673 
	C137.354019,147.306946 139.851639,144.194824 143.216370,143.258255 
	C144.873413,142.797012 146.603577,142.294205 147.704285,144.049194 
	C148.826279,145.838135 147.591934,147.229080 146.360718,148.379990 
	C144.265182,150.338867 141.762955,152.389236 138.980927,152.122482 
	C133.633957,151.609787 131.091293,154.344528 129.181473,158.632370 
	C128.657501,159.808762 127.606697,160.750504 126.548599,162.026657 
	C126.299538,162.253387 125.988792,161.993164 125.832474,161.864197 
z"/>
<path fill="#000000" opacity="1.000000" stroke="none" 
	d="
M368.208435,130.006500 
	C366.104797,138.920914 357.582977,141.700470 351.343964,135.915619 
	C350.205597,134.860153 349.170746,133.681519 349.911346,132.016205 
	C350.581726,130.508865 352.090546,130.762115 353.403046,130.706787 
	C355.139404,130.633606 356.646912,131.272629 358.112152,132.130890 
	C359.393494,132.881424 360.722443,133.803665 362.212708,132.198532 
	C362.377197,129.957993 360.424316,128.390274 360.066895,126.297760 
	C359.711578,124.217758 358.700806,121.600769 361.124969,120.444946 
	C363.675568,119.228874 365.041840,121.719353 366.029938,123.530060 
	C367.046478,125.393005 367.502319,127.561928 368.208435,130.006500 
z"/>
<path fill="#000000" opacity="1.000000" stroke="none" 
	d="
M140.389496,133.206436 
	C138.953781,128.547424 140.584427,125.005577 143.160889,121.763870 
	C143.992065,120.718063 145.155869,119.726189 146.593643,120.284355 
	C148.266891,120.933960 148.546967,122.591965 148.178345,124.088783 
	C147.450409,127.044647 146.466476,129.937469 145.525635,133.064941 
	C148.674973,133.759018 150.237076,131.347733 152.420547,130.992538 
	C154.488678,130.656113 157.076080,129.739868 158.144806,132.319519 
	C159.132858,134.704483 156.839554,135.789139 155.145294,136.801926 
	C149.050995,140.444962 143.380981,139.173157 140.389496,133.206436 
z"/>
<path fill="#000000" opacity="1.000000" stroke="none" 
	d="
M393.931458,272.611115 
	C394.164673,271.397400 394.499298,270.543610 394.913208,269.357758 
	C397.991577,265.670013 399.202850,261.053558 402.646820,258.036865 
	C404.342346,256.551727 406.192322,254.247833 408.655609,255.681122 
	C411.406647,257.281830 410.309021,260.036011 409.413574,262.385925 
	C407.313599,267.896942 404.140350,272.374207 397.955872,273.803650 
	C396.523041,274.134857 395.012848,274.790894 393.931458,272.611115 
z"/>
<path fill="#000000" opacity="1.000000" stroke="none" 
	d="
M112.984734,268.996521 
	C113.233177,270.438873 113.496246,271.897583 113.758263,273.350403 
	C106.136139,275.099121 95.770935,264.835999 97.865181,257.659149 
	C98.862923,254.239914 101.160164,255.019073 103.308319,256.441101 
	C107.786545,259.405548 109.582726,264.442169 112.766205,268.827942 
	C113.022484,269.050385 112.999359,269.012878 112.984734,268.996521 
z"/>
<path fill="#000000" opacity="1.000000" stroke="none" 
	d="
M346.691101,120.786705 
	C348.223785,121.334732 349.384399,122.325287 350.865021,120.940323 
	C350.083710,118.295433 347.705048,116.341911 347.184814,113.496223 
	C346.904541,111.963211 346.485229,110.422577 347.994537,109.422050 
	C349.618042,108.345833 350.822388,109.603264 351.917084,110.595230 
	C355.499786,113.841721 356.746338,120.614281 354.411377,123.860275 
	C352.054138,127.137260 346.137177,127.930000 341.611511,125.567818 
	C339.969788,124.710907 337.937195,123.813240 338.735077,121.568535 
	C339.464294,119.517105 341.626007,119.576790 343.486176,119.807419 
	C344.459442,119.928078 345.394012,120.360939 346.691101,120.786705 
z"/>
<path fill="#000000" opacity="1.000000" stroke="none" 
	d="
M168.737122,123.950371 
	C167.103088,125.481598 165.417892,126.144035 163.649826,126.643318 
	C159.133652,127.918686 154.270493,125.867142 152.801270,122.064102 
	C151.350555,118.308960 153.735428,111.604195 157.179657,109.763687 
	C158.065063,109.290543 158.979919,108.797447 159.938690,109.534973 
	C160.968781,110.327347 161.105988,111.427010 160.970581,112.659035 
	C160.618042,115.867226 158.154083,118.158112 157.054672,121.074783 
	C159.673355,122.652199 161.287476,120.262001 163.265701,120.096100 
	C165.908875,119.874420 169.838196,118.120331 168.737122,123.950371 
z"/>
<path fill="#000000" opacity="1.000000" stroke="none" 
	d="
M340.975159,104.228455 
	C343.334686,108.156548 343.905762,111.834839 340.611389,114.974754 
	C337.347839,118.085243 333.381836,117.851158 329.461029,116.242691 
	C328.066986,115.670815 326.657135,114.748924 327.020111,112.948334 
	C327.377777,111.174187 329.046631,110.711647 330.516205,110.822136 
	C332.951660,111.005234 335.358368,111.571289 338.102936,112.030525 
	C337.701263,109.352219 335.560242,107.974518 334.748566,105.905243 
	C334.036011,104.088707 332.646210,101.984451 334.835907,100.557533 
	C336.718872,99.330498 338.172729,101.132271 339.471954,102.396751 
	C339.944550,102.856674 340.332825,103.403267 340.975159,104.228455 
z"/>
<path fill="#000000" opacity="1.000000" stroke="none" 
	d="
M165.489990,107.686935 
	C166.169968,104.770020 167.665070,102.826134 169.710114,101.310890 
	C170.759689,100.533226 171.988724,99.647591 173.312119,100.627411 
	C174.593262,101.575958 174.430466,103.031471 173.799194,104.239189 
	C172.522003,106.682594 171.064850,109.031929 169.596146,111.568176 
	C172.525955,112.387657 174.904984,110.410889 177.516342,110.767960 
	C179.042969,110.976700 180.584030,111.292374 180.936325,113.061508 
	C181.256302,114.668335 179.982315,115.444748 178.775040,115.998070 
	C175.293533,117.593727 171.705338,118.078049 168.359924,115.824211 
	C165.666458,114.009621 164.515274,111.359581 165.489990,107.686935 
z"/>
<path fill="#000000" opacity="1.000000" stroke="none" 
	d="
M320.166992,103.980347 
	C318.001617,102.524513 315.642914,101.773575 315.113098,99.164734 
	C319.798462,96.601761 327.176422,100.341545 330.658295,107.165314 
	C326.703339,107.757790 323.724152,105.501816 320.166992,103.980347 
z"/>
<path fill="#000000" opacity="1.000000" stroke="none" 
	d="
M184.266327,99.979858 
	C187.106216,98.637917 189.519257,96.835388 192.505920,98.461060 
	C191.147400,103.173233 184.244644,107.068756 177.008240,107.041267 
	C178.427216,103.640053 181.253235,101.975197 184.266327,99.979858 
z"/>
</svg>